<?xml version="1.0" encoding="utf-8"?>
<!-- Generator: Adobe Illustrator 25.0.1, SVG Export Plug-In . SVG Version: 6.00 Build 0)  -->
<svg version="1.1" id="Layer_1" xmlns="http://www.w3.org/2000/svg" xmlns:xlink="http://www.w3.org/1999/xlink" x="0px" y="0px"
	 viewBox="0 0 147.8 112.8" style="enable-background:new 0 0 147.8 112.8;" xml:space="preserve">
<style type="text/css">
	.st0{clip-path:url(#SVGID_1_);}
	.st1{fill:#3C98D4;}
	.st2{fill:#3B98D4;}
</style>
<g>
	<defs>
		<polygon id="SVGID_3_" points="0,112.8 147.8,112.8 147.8,0 0,0 0,112.8 		"/>
	</defs>
	<clipPath id="SVGID_1_">
		<use xlink:href="#SVGID_3_"  style="overflow:visible;"/>
	</clipPath>
	<g class="st0">
		<path class="st1" d="M147.9,76.9c-0.3,2.1-0.5,4.3-0.9,6.4c-1.1,5.6-3.3,10.8-6.7,15.5c-3.6,5.1-8.2,9.1-14,11.6
			c-4.1,1.8-8.4,2.5-12.8,2.4c-4-0.1-7.9,0-11.9,0c0-5.5,0-11.1,0-16.6c2.4,0,4.8,0,7.2,0c3-0.1,6.1,0,9.1-0.4c3-0.4,5.7-1.9,8-3.9
			c4.1-3.6,6.5-8.1,7.2-13.4c1-6.9,0.1-13.6-4.1-19.5c-2.2-3-5-5.3-8.7-6.2c-1.5-0.4-3-0.6-4.5-0.9c-0.1-1.8-0.2-3.8-0.4-5.8
			c-1-8.2-3.6-15.8-9.7-21.8c-2.5-2.5-5.3-4.3-8.5-5.7c-5.5-2.2-11.1-2.4-16.7-1.1c-5.6,1.4-10.1,4.6-13.8,9c-3,3.6-5.1,7.6-6.6,12
			c-1.7-2.7-3.9-4.7-7-5.3c-5.1-1-9.4,0.6-12.9,4.4c-2.8,3-3.9,6.6-3.8,10.6c0,1.2,0.3,2.5,0.4,3.4c-1.6,0-3.1-0.1-4.7,0
			c-4.6,0.3-8.3,2.3-11.4,5.7c-3.1,3.3-4.8,7.4-5.7,11.8C14,75,14.6,80.6,17.4,85.8c2.4,4.5,5.9,7.9,10.8,9.4c2.2,0.7,4.6,0.9,7,0.9
			c5.3,0.1,10.6,0,16,0c0.2,0,0.4,0,0.7,0c0,5.5,0,11.1,0,16.6c-1.3,0-2.6,0-3.9,0c-5.2,0-10.4,0.1-15.6,0
			c-5.7-0.2-10.9-2.1-15.6-5.3c-4-2.7-7.2-6-9.8-10c-3.2-4.9-5.2-10.3-6.1-16C-0.5,73.8,0.3,66.4,3,59.1c2-5.3,5-10,9-14
			c3.4-3.3,7.4-5.9,12-7.5c1.8-7,5.4-12.8,11.4-17c6.1-4.2,12.7-5.3,19.7-3.4c1.6-1.7,3-3.5,4.6-5c1.9-1.8,3.8-3.6,5.9-5.1
			C70.1,4,75,1.9,80.5,0.8c1.6-0.3,3.2-0.5,4.8-0.7c1.5,0,3,0,4.5,0c2.1,0.4,4.2,0.7,6.2,1.1c4.7,1,9,3,13,5.7
			c4.3,2.9,8,6.5,11,10.7c4.6,6.3,7.5,13.3,8.9,21c0.1,0.5,0.2,1.3,0.5,1.5c4,2.3,7.3,5.3,10,8.9c3.4,4.4,5.8,9.4,7,14.9
			c0.6,2.7,0.9,5.4,1.3,8.2C147.9,73.6,147.9,75.3,147.9,76.9z"/>
		<path class="st2" d="M91,81.1c0,10.6,0,21.1,0,31.7c-9.5,0-19,0-28.6,0c0-10.5,0-21.1,0-31.7c-4,0-8,0-12.2,0
			c8.9-10.3,17.6-20.4,26.5-30.6c8.8,10.2,17.6,20.4,26.4,30.6C99,81.1,95.1,81.1,91,81.1z"/>
	</g>
</g>
</svg>
