<?xml version="1.0" encoding="utf-8"?>
<!-- Generator: Adobe Illustrator 25.0.1, SVG Export Plug-In . SVG Version: 6.00 Build 0)  -->
<svg version="1.1" id="Layer_1" xmlns="http://www.w3.org/2000/svg" xmlns:xlink="http://www.w3.org/1999/xlink" x="0px" y="0px"
	 viewBox="0 0 163.5 113.8" style="enable-background:new 0 0 163.5 113.8;" xml:space="preserve">
<g>
	<path d="M5.6-8.8v3.7h6.8v5.9H5.6v3.8h8.3v6.6H0v-26.5h13.9v6.5H5.6z"/>
	<path d="M35.6-15.4v26.8h-1.8l-11-13.2v13h-5.7v-26.8h1.8l11,13.2v-12.9H35.6z"/>
	<path d="M57.1-15.4v26.5h-5.7v-10h-6.4v10h-5.7v-26.5h5.7v9.9h6.4v-9.9H57.1z"/>
	<path d="M74.6,8h-8l-1.1,3.1h-6.2l10-26.8H72l10,26.8h-6.2L74.6,8z M72.8,2.9l-2.2-6.3l-2.2,6.3H72.8z"/>
	<path d="M102.6-15.4v26.8h-1.8l-11-13.2v13h-5.7v-26.8h1.8l11,13.2v-12.9H102.6z"/>
	<path d="M105.4-2.1c0-7.8,5.1-13.9,11.8-13.9c2.8,0,5.7,1.5,7.9,4l-3.3,5.2c-1.3-1.5-3.1-2.4-4.6-2.4c-3.3,0-6.1,3.1-6.1,7.2
		c0,4.1,2.9,7.1,5.9,7.1c1.8,0,3.4-1.1,4.8-2.6l3.2,5.3c-2.1,2.3-4.8,3.9-8,3.9C111.1,11.7,105.4,6.2,105.4-2.1z"/>
	<path d="M133.3-8.8v3.7h6.8v5.9h-6.8v3.8h8.3v6.6h-13.9v-26.5h13.9v6.5H133.3z"/>
	<path d="M163.5-2.1c0,8.2-4.5,13.2-11.8,13.2h-7v-26.5l7,0C159-15.4,163.5-10.4,163.5-2.1z M157.8-2.1c0-4.2-2.3-6.7-6.2-6.7h-1.3
		V4.5h1.4C155.4,4.5,157.8,2,157.8-2.1z"/>
</g>
<g>
	<path d="M13.5,45.2H6.4l-1,2.9H0l8.8-25.2h2.4l8.8,25.2h-5.5L13.5,45.2z M11.9,40.3L10,34.4L8,40.3H11.9z"/>
	<path d="M19.9,39V23.2H25V39c0,2.1,1.3,3.4,2.8,3.4c1.4,0,2.8-1.4,2.8-3.4V23.2h5.1V39c0,5.7-3.5,9.7-7.8,9.7S19.9,44.7,19.9,39z"
		/>
	<path d="M51.7,29.3h-4.5v18.7h-5V29.3h-4.5v-6.2h14.1V29.3z"/>
	<path d="M52,35.6c0-7.5,4.5-13.1,10.4-13.1s10.4,5.7,10.4,13.1c0,7.4-4.5,13.1-10.4,13.1C56.5,48.7,52,43.1,52,35.6z M67.7,35.6
		c0-3.8-2.3-6.8-5.3-6.8s-5.3,3-5.3,6.8c0,3.8,2.3,6.8,5.3,6.8S67.7,39.4,67.7,35.6z"/>
	<path d="M95.5,22.9v25.1h-5v-9.9l-5.1,9.5h0l-5.1-9.5v9.9h-5V22.9h2l8.1,14.6l8.1-14.6H95.5z"/>
	<path d="M110.9,45.2h-7.1l-1,2.9h-5.5l8.8-25.2h2.4l8.8,25.2h-5.5L110.9,45.2z M109.3,40.3l-1.9-5.9l-1.9,5.9H109.3z"/>
	<path d="M129.8,29.3h-4.5v18.7h-5V29.3h-4.5v-6.2h14.1V29.3z"/>
	<path d="M136.9,29.3v3.5h6v5.5h-6v3.6h7.3v6.2h-12.2V23.2h12.2v6.1H136.9z"/>
	<path d="M163.5,35.6c0,7.7-3.9,12.4-10.3,12.4H147V23.2l6.2,0C159.6,23.1,163.5,27.9,163.5,35.6z M158.4,35.6
		c0-3.9-2.1-6.3-5.4-6.3h-1.1v12.5h1.2C156.4,41.8,158.4,39.5,158.4,35.6z"/>
</g>
<g>
	<path d="M10.9,85.3L5.4,75v10.3H0l0-23.8h7.8c4.4,0,7.6,3.5,7.6,7.7c0,3-1.5,5.4-3.5,6.5l5.5,9.5H10.9z M5.4,72l2.2,0
		c1.2,0,2.2-0.9,2.2-2.4c0-1.5-1.1-2.4-2.2-2.4H5.4V72z"/>
	<path d="M24.6,67.4v3.3H31V76h-6.5v3.4h7.9v5.9H19.2V61.5h13.2v5.9H24.6z"/>
	<path d="M35.4,61.5h7.7c4.2,0,7.7,3.7,7.7,8.3c0,4.6-3.4,8.4-7.7,8.4h-2.3v7h-5.4V61.5z M45.6,69.9c0-1.4-1-2.5-2.5-2.5h-2.3v5.1
		l2.3,0C44.6,72.5,45.6,71.3,45.6,69.9z"/>
	<path d="M52.3,73.4c0-7.1,4.9-12.5,11.2-12.5s11.2,5.4,11.2,12.5c0,7.1-4.9,12.5-11.2,12.5C57.1,85.9,52.3,80.5,52.3,73.4z
		 M69.2,73.4c0-3.7-2.5-6.5-5.7-6.5c-3.2,0-5.7,2.8-5.7,6.5c0,3.7,2.5,6.5,5.7,6.5C66.7,79.9,69.2,77,69.2,73.4z"/>
	<path d="M88.3,85.3L82.8,75v10.3h-5.4l0-23.8h7.8c4.4,0,7.6,3.5,7.6,7.7c0,3-1.5,5.4-3.5,6.5l5.5,9.5H88.3z M82.8,72l2.2,0
		c1.2,0,2.2-0.9,2.2-2.4c0-1.5-1.1-2.4-2.2-2.4h-2.2V72z"/>
	<path d="M110,67.4h-4.9v17.9h-5.4V67.4h-4.9v-5.9H110V67.4z"/>
	<path d="M112.3,61.5h5.4v23.8h-5.4V61.5z"/>
	<path d="M138.9,61.5v24h-1.7l-10.5-11.8v11.6h-5.4v-24h1.7l10.5,11.8V61.5H138.9z"/>
	<path d="M163.5,73.9c0,7.2-4.7,11.9-10.5,11.9c-6.5,0-11.4-5.6-11.4-12.4s4.9-12.5,11.2-12.5c2.6,0,5.6,1.3,7.3,3.1l-3,4.8
		c-1.1-1.2-2.8-2-4.3-2c-3,0-5.7,2.9-5.7,6.6c0,3.3,2.3,6.6,6.1,6.6c2.5,0,4.2-1.4,4.3-3.7h-4.7v-4.7h10.5
		C163.4,72.4,163.5,73.2,163.5,73.9z"/>
</g>
<g>
	<path d="M0,99.2h8.4c4.6,0,8.4,3.7,8.4,8.4c0,4.6-3.8,8.5-8.4,8.5H5.9v7.1H0V99.2z M11.1,107.6c0-1.5-1.1-2.6-2.7-2.6H5.9v5.2
		l2.5,0C10,110.2,11.1,109.1,11.1,107.6z"/>
	<path d="M33.9,117.2v6H19.4v-24h5.9v18H33.9z"/>
	<path d="M50.7,120.4h-8.3l-1.1,2.8h-6.5l10.4-24.3h2.8l10.4,24.3h-6.5L50.7,120.4z M48.8,115.7l-2.3-5.7l-2.3,5.7H48.8z"/>
	<path d="M73.1,105.1h-5.3v18h-5.9v-18h-5.4v-5.9h16.6V105.1z"/>
	<path d="M81.4,105.1v3.9h7.1v5.3h-7.1v8.9h-5.9v-24H90v6H81.4z"/>
	<path d="M91.1,111.2c0-7.2,5.3-12.6,12.3-12.6c6.9,0,12.3,5.5,12.3,12.6c0,7.1-5.3,12.6-12.3,12.6
		C96.4,123.8,91.1,118.3,91.1,111.2z M109.6,111.2c0-3.7-2.7-6.6-6.3-6.6c-3.5,0-6.3,2.9-6.3,6.6c0,3.7,2.7,6.5,6.3,6.5
		C106.9,117.7,109.6,114.8,109.6,111.2z"/>
	<path d="M130.5,123.1l-6-10.4v10.4h-5.9l0-24h8.5c4.8,0,8.3,3.5,8.3,7.8c0,3-1.7,5.5-3.9,6.6l6,9.6H130.5z M124.5,109.7l2.4,0
		c1.3,0,2.4-0.9,2.4-2.4c0-1.5-1.2-2.4-2.4-2.4h-2.4V109.7z"/>
	<path d="M163.5,99v24.2h-5.9v-9.5l-6,9.1h0l-6-9.1v9.5h-5.9V99h2.4l9.6,14.1l9.6-14.1H163.5z"/>
</g>
</svg>
