<?xml version="1.0" encoding="utf-8"?>
<!-- Generator: Adobe Illustrator 25.0.1, SVG Export Plug-In . SVG Version: 6.00 Build 0)  -->
<svg version="1.1" id="Layer_1" xmlns="http://www.w3.org/2000/svg" xmlns:xlink="http://www.w3.org/1999/xlink" x="0px" y="0px"
	 viewBox="0 0 595.3 841.9" style="enable-background:new 0 0 595.3 841.9;" xml:space="preserve">
<style type="text/css">
	.st0{fill:#00AEEF;stroke:#00AEEF;stroke-width:3;stroke-miterlimit:10;}
	.st1{fill:#FFFFFF;}
</style>
<g>
	<path class="st0" d="M553.6,388c-0.8,4.3-1.6,8.7-2.6,13c-8.3,38.8-32.8,63.6-67.9,79.9c-22.1,10.2-45.1,11.4-68.7,10.1
		c-6.2-0.3-10.1-5.1-9.9-10.9c0.2-5.9,4.5-10.1,10.7-10.2c8.1-0.1,16.3,0,24.4,0c47.7-0.3,89.2-40.9,92.3-88.3
		c3.5-53.4-33.6-90.6-69.9-99.7c-8.6-2.2-17.7-3-26.6-3.3c-6.7-0.2-10.8-2.4-13.8-8.4c-19.9-39.5-51-65.2-94.5-74.2
		c-75.3-15.5-151.8,31.1-165.1,111.3c-0.8,4.7-1.5,9.5-1.8,14.3c-0.6,8.5-5.9,12.8-14.5,11.2c-9.3-1.8-18.4-1.7-27.7,0.2
		c-29,6.1-51.6,32.1-53.9,61.6c-1.3,17.5,1,33.9,11.7,48.2c10.1,13.6,23.9,21.3,40.5,24.1c8.1,1.4,12.8,6.2,11.7,12.6
		c-1,6.4-6.7,10.2-13.8,9c-18.8-3.2-34.9-11.8-47.8-25.8c-24.9-27-30.6-58.5-18.4-92.5c12.3-34.2,37.5-53.8,73.6-59.1
		c4.4-0.6,8.9-0.9,13.4-0.8c3.4,0.1,4.8-0.5,5.4-4.4c9.6-62.9,61.1-117.3,123.2-130.5c66.8-14.1,135.9,15.7,171,74
		c3.2,5.3,6.3,7.7,12.9,8.3c49.9,4.3,91.7,41.1,102.8,89.9c1.1,4.8,2.1,9.7,3.1,14.5C553.6,370.7,553.6,379.4,553.6,388z"/>
	<path class="st0" d="M334.4,574.4c-52.2,41.1-115.7,26.7-150.4-15.8c-34.8-42.6-31.8-102.3,7.3-141.7c39.1-39.4,99-42.9,141.7-8.6
		c42,33.8,58.7,97.3,15.7,152.2c1.5,0.9,3.5,1.6,4.9,2.9c18.9,18.7,37.7,37.5,56.5,56.4c1.8,1.8,3.7,4,4.7,6.3
		c1.9,4.5-0.1,9.6-4,12.3c-4.4,3-9.5,2.7-13.7-1.4c-7.8-7.5-15.3-15.3-22.9-22.9C360.9,601,347.7,587.8,334.4,574.4z M352.4,491.9
		c0.1-48.6-36.5-85.9-84.7-85.9c-52.4-0.1-87.2,40-86.6,87.1c0.5,47.3,37.3,84.3,85.3,84.5C315.1,577.8,352.3,540.8,352.4,491.9z"/>
	<path class="st1" d="M352.4,491.9c-0.1,48.9-37.2,85.9-86,85.6c-48-0.2-84.7-37.2-85.3-84.5c-0.5-47,34.2-87.2,86.6-87.1
		C315.8,406.1,352.5,443.3,352.4,491.9z"/>
</g>
</svg>
