<svg xmlns="http://www.w3.org/2000/svg" viewBox="0 0 261.04 635.28"><defs><style>.cls-1{fill:#fff;}.cls-2{fill:#050607;}.cls-3{fill:#b2b2b2;}.cls-4{fill:#0166fd;}</style></defs><g id="Layer_1_Image" data-name="Layer 1 Image"><rect class="cls-1" x="107.8" y="255.82" width="37.13" height="367.75"/><path class="cls-2" d="M105.42,441.17q0-89.15.08-178.28c0-3.25-1.28-4.18-4.09-4.93C46.12,243.28,12.47,207.68,2.06,151.67-11,81.19,39.84,11.86,111,1.45c65.9-9.64,127,29.48,145.44,93.37a111,111,0,0,1-.44,64.93c-2.87,9.27-5.31,18.84-9.57,27.48a158.75,158.75,0,0,1-17.08,27C212,236.47,187,246.55,161.4,255.4a9.29,9.29,0,0,1-2.44.5c-9.21.54-9.59,1.2-9.56,10.76.1,35.49,0,71,0,106.45,0,30.32-.05,60.64,0,91,.09,33.67.3,67.34.45,101,.08,18.27.18,36.54.15,54.81,0,1.45-.43,3.57-1.43,4.25-4.95,3.35-9.91,6.85-15.32,9.31a19.91,19.91,0,0,1-26.91-10.9c-1.4-3.64-.68-8.15-.69-12.26q-.06-61.35,0-122.7V441.17ZM127.08,623.5c6.4-1.2,11.38-6,11.39-10.86q0-33-.05-65.94-.06-67.92-.13-135.85,0-54.9-.06-109.79V261.31H120.28c-9-1.67-9.12-1.59-9.11,6q.18,168.66.43,337.33a34.27,34.27,0,0,0,1.7,10.23C113.68,616.1,122.19,624.41,127.08,623.5ZM249.8,129.74C249.64,64,196.08,11.19,129.4,11.55c-64.49.35-119.13,53.71-117.56,122A118.81,118.81,0,0,0,130.7,249.88C196.82,249.93,250,196.29,249.8,129.74Z"/><path class="cls-3" d="M120.28,261.31q.12,53.47.23,107,.1,117.2,0,234.41c0,5,.9,11.84-3,14.89-1.07.69-3.78-1.46-4.16-2.67a34.27,34.27,0,0,1-1.7-10.23q-.3-168.66-.43-337.33C111.16,259.72,111.3,259.64,120.28,261.31Z"/><path class="cls-4" d="M249.8,128.79a97.77,97.77,0,0,0-.6-10.75c-6-60.18-57.12-106.83-119.8-106.49-64.49.35-119.13,53.71-117.56,122A118.81,118.81,0,0,0,130.7,249.88c66.12.05,119.26-53.59,119.1-120.14v-1Z"/></g></svg>